<?xml version="1.0" standalone="no"?>
<!DOCTYPE svg PUBLIC "-//W3C//DTD SVG 20010904//EN"
 "http://www.w3.org/TR/2001/REC-SVG-20010904/DTD/svg10.dtd">
<svg version="1.0" xmlns="http://www.w3.org/2000/svg"
 width="16.000000pt" height="16.000000pt" viewBox="0 0 16.000000 16.000000"
 preserveAspectRatio="xMidYMid meet">
<metadata>
Created by potrace 1.11, written by Peter Selinger 2001-2013
</metadata>
<g transform="translate(0.000000,16.000000) scale(0.001563,-0.001563)"
fill="#000000" stroke="none">
<path d="M855 10225 c-325 -59 -599 -264 -748 -560 -33 -66 -45 -100 -85 -235
-15 -50 -16 -412 -19 -4275 -2 -4539 -5 -4272 47 -4440 33 -103 103 -237 165
-315 168 -208 402 -347 655 -388 25 -4 1944 -7 4265 -7 4045 0 4223 1 4295 18
144 35 296 106 406 190 55 41 160 149 210 214 27 35 115 193 107 193 -3 0 -1
6 4 13 12 14 50 129 57 172 3 17 10 53 15 80 7 32 9 1534 8 4270 l-2 4220 -22
75 c-30 105 -71 205 -112 274 -20 32 -41 67 -47 77 -6 11 -35 47 -65 81 -30
33 -56 64 -59 67 -7 8 -97 81 -140 112 -60 44 -221 118 -320 146 l-95 28
-4225 2 c-3408 1 -4239 -1 -4295 -12z"/>
</g>
</svg>
